<svg width="24" height="24" viewBox="0 0 24 24" fill="none" xmlns="http://www.w3.org/2000/svg">
<path d="M11.5341 3.68248V1.97623C11.5341 1.46998 10.9219 1.21592 10.5638 1.57404L5.4375 6.70029L10.5328 11.7956C10.8909 12.1537 11.5031 11.8997 11.5031 11.3934V8.84154C11.5031 8.84154 16.0069 8.56779 19.4756 12.0365C19.8666 12.4275 20.5331 12.06 20.4253 11.5162C19.8403 8.56123 17.91 3.68154 11.5341 3.68154V3.68248Z" fill="currentColor"/>
<path d="M12.4659 20.3176V22.0238C12.4659 22.5301 13.0781 22.7841 13.4362 22.426L18.5624 17.2997L13.4671 12.2044C13.109 11.8463 12.4968 12.1004 12.4968 12.6066V15.1585C12.4968 15.1585 7.99307 15.4322 4.52432 11.9635C4.13338 11.5726 3.46682 11.9401 3.57463 12.4838C4.15963 15.4388 6.08994 20.3185 12.4659 20.3185V20.3176Z" fill="currentColor"/>
</svg>
