<svg width="24" height="24" viewBox="0 0 24 24" fill="none" xmlns="http://www.w3.org/2000/svg">
<path d="M12 24C18.6274 24 24 18.6274 24 12C24 5.37258 18.6274 0 12 0C5.37258 0 0 5.37258 0 12C0 18.6274 5.37258 24 12 24Z" fill="#008F0E"/>
<path d="M18.4615 14.7692V15.6799C18.4615 17.0001 15.8051 18.4615 12 18.4615C8.19486 18.4615 5.53845 17.0001 5.53845 15.6799V14.7692C7.02461 15.8423 9.42973 16.4777 12 16.4777C14.5702 16.4777 16.9826 15.8423 18.4615 14.7692Z" fill="#FCFDFD"/>
<path d="M18.4615 11.0769V11.9929C18.3861 12.5582 18.0527 13.058 17.5569 13.3491C16.3436 14.2509 14.2687 14.7692 12 14.7692C9.73127 14.7692 7.6923 14.2296 6.43589 13.3491C5.94438 13.0549 5.61431 12.5561 5.53845 11.9929V11.0911C7.46694 12.2958 9.72103 12.8903 12 12.7952C14.2791 12.8741 16.5298 12.2755 18.4615 11.0769Z" fill="#FCFDFD"/>
<path d="M18.4615 8.30768C18.4299 8.70348 18.2419 9.0716 17.9374 9.33384C16.8605 10.3881 14.5272 11.0769 12 11.0769C8.19486 11.0769 5.53845 9.61498 5.53845 8.30768C5.53845 7.00038 8.19486 5.53845 12 5.53845C15.8051 5.53845 18.4615 6.99335 18.4615 8.30768Z" fill="#FCFDFD"/>
</svg>
