<svg width="24" height="24" viewBox="0 0 24 24" fill="none" xmlns="http://www.w3.org/2000/svg">
<path fill-rule="evenodd" clip-rule="evenodd" d="M2 5C2 3.89543 2.89543 3 4 3H18C19.1046 3 20 3.89543 20 5V7.26756C20.5978 7.61337 21 8.25972 21 9V14.0528C22.0973 14.9325 22.8 16.2842 22.8 17.8C22.8 20.451 20.6509 22.6 18 22.6C16.5784 22.6 15.3011 21.982 14.4222 21H4C2.89543 21 2 20.1046 2 19V5ZM13.3512 19C13.2525 18.6165 13.2 18.2144 13.2 17.8C13.2 17.5274 13.2227 17.2602 13.2663 17H12C10.8954 17 10 16.1046 10 15V9C10 7.89543 10.8954 7 12 7H18V5H4V19H13.3512ZM14.1008 15C14.9721 13.7887 16.3939 13 18 13C18.3429 13 18.6774 13.036 19 13.1043V9H18H12V15H14.1008ZM14.8 17.8C14.8 16.0327 16.2326 14.6 18 14.6C19.7673 14.6 21.2 16.0327 21.2 17.8C21.2 19.5673 19.7673 21 18 21C16.2326 21 14.8 19.5673 14.8 17.8ZM17.6 15.8V17.2H16V18.2H17.6V19.8H18.6V18.2H20V17.2H18.6V15.8H17.6Z" fill="currentColor"/>
</svg>
