<svg width="24" height="24" viewBox="0 0 24 24" fill="none" xmlns="http://www.w3.org/2000/svg">
<path d="M21.3672 8.54827C19.5718 6.75286 16.6649 7.09479 14.1855 7.00931C14.3565 7.1803 14.6984 7.3513 14.9549 7.60778C15.3824 8.03527 15.7244 8.54826 15.9809 9.14674C17.3489 9.14674 18.8024 9.06125 19.8283 10.0872C20.3413 10.6002 20.6833 11.4552 20.7688 12.2247C20.7688 13.9346 19.4008 15.3026 17.6909 15.3026H13.245C12.561 15.3026 11.6205 14.8751 11.1075 14.3621C9.91053 13.1652 10.0815 11.7972 10.5945 10.4292H8.37156C7.77308 12.3956 7.85858 14.3621 9.39753 15.9011C10.4235 16.9271 11.7914 17.44 13.074 17.3546H17.5199C19.0588 17.3546 20.5123 16.9271 21.6237 15.8156C23.3336 13.7636 23.2482 10.4292 21.3672 8.54827ZM7.34515 15.217H5.8062C5.12221 15.217 4.18176 14.7895 3.66873 14.2765C3.15575 13.7636 2.81375 12.9085 2.72826 12.1391C2.72826 10.4291 4.18173 8.97567 5.80617 9.06115H10.2521C10.936 9.06115 11.8765 9.48863 12.3895 10.0016C13.5865 11.1986 13.33 12.652 12.9025 13.9345H15.1255C15.724 11.9681 15.6385 10.0016 14.0995 8.46266C13.0735 7.43669 11.7056 6.9237 10.4231 7.00919H5.97718C3.07023 7.00919 0.761794 9.31763 0.847399 12.139C0.847399 14.8748 3.15584 17.3544 5.89169 17.1833H9.14058C8.79859 17.0123 8.5421 16.7558 8.2856 16.4993C7.85812 16.0718 7.51615 15.73 7.34515 15.217Z" fill="currentColor"/>
</svg>
