<svg width="24" height="24" viewBox="0 0 24 24" fill="none" xmlns="http://www.w3.org/2000/svg">
<path d="M20.4356 6.5651L13.1177 2.33999C12.6394 2.06375 12.0454 2.06375 11.5674 2.33999L4.24921 6.5651C3.77096 6.84112 3.47406 7.35559 3.47406 7.90762V16.3581C3.47406 16.9101 3.77096 17.4246 4.24921 17.7004L11.5676 21.9259C11.8067 22.0637 12.0745 22.1328 12.3425 22.1328C12.6105 22.1328 12.8786 22.0637 13.1175 21.9257L20.4356 17.7006C20.9136 17.4248 21.2108 16.9101 21.2108 16.3581V7.90762C21.2108 7.35537 20.9136 6.84089 20.4356 6.5651ZM10.1473 14.4575C10.1473 14.7553 9.94974 15.0171 9.6635 15.0987C9.60283 15.116 9.54149 15.1242 9.4806 15.1242C9.25414 15.1242 9.03791 15.0084 8.91412 14.8091L7.26115 12.1463V14.4575C7.26115 14.8258 6.96269 15.1242 6.59445 15.1242C6.22621 15.1242 5.92775 14.8258 5.92775 14.4575V9.80794C5.92775 9.51015 6.12531 9.24835 6.41155 9.16679C6.69867 9.08568 7.00402 9.20346 7.16092 9.45637L8.8139 12.1192V9.80794C8.8139 9.4397 9.11236 9.14124 9.4806 9.14124C9.84884 9.14124 10.1473 9.4397 10.1473 9.80794V14.4575ZM13.5773 11.466C13.9455 11.466 14.244 11.7645 14.244 12.1327C14.244 12.501 13.9455 12.7994 13.5773 12.7994H12.3948V14.4575C12.3948 14.8258 12.0963 15.1242 11.7281 15.1242C11.3598 15.1242 11.0613 14.8258 11.0613 14.4575V9.80794C11.0613 9.4397 11.3598 9.14124 11.7281 9.14124H13.5773C13.9455 9.14124 14.244 9.4397 14.244 9.80794C14.244 10.1762 13.9455 10.4746 13.5773 10.4746H12.3948V11.466H13.5773ZM18.0902 10.4746H17.4357V14.4575C17.4357 14.8258 17.1372 15.1242 16.769 15.1242C16.4007 15.1242 16.1023 14.8258 16.1023 14.4575V10.4746H15.4478C15.0796 10.4746 14.7811 10.1762 14.7811 9.80794C14.7811 9.4397 15.0796 9.14124 15.4478 9.14124H18.0904C18.4586 9.14124 18.7571 9.4397 18.7571 9.80794C18.7571 10.1762 18.4584 10.4746 18.0902 10.4746Z" fill="currentColor"/>
</svg>
