<svg width="24" height="24" viewBox="0 0 24 24" fill="none" xmlns="http://www.w3.org/2000/svg">
<path d="M3 17.3618C5.0452 17.4782 6.83364 16.9948 8.57782 15.7147C6.81594 15.4103 5.59413 14.5957 4.93011 12.9127C5.44362 12.8411 5.89516 12.9754 6.42638 12.7605C4.69106 11.9906 3.56664 10.8358 3.52237 8.83955C4.0713 8.88431 4.48743 9.25134 5.1426 9.19763C3.54893 7.62208 3.06198 5.9033 4.06244 3.81749C5.72693 5.75112 7.67475 7.06706 10.0564 7.68474C10.1892 7.72055 10.3131 7.75636 10.4459 7.78322C11.0568 7.92645 11.7829 8.23081 12.1547 8.18606C12.7922 8.10549 12.1547 7.36247 12.3141 6.39566C12.8187 3.38779 16.0946 2.01814 18.5205 3.78168C19.2288 4.3009 19.7866 4.29194 20.486 3.97862C20.849 3.81749 21.2209 3.65635 21.6547 3.46836C21.5573 4.32775 20.9021 4.80221 20.3798 5.4378C20.973 5.57208 21.4511 5.40199 22 5.22295C21.8141 5.84064 21.3537 6.18976 20.9376 6.52994C20.5037 6.87907 20.3355 7.2461 20.3178 7.81902C20.0522 16.4935 10.3043 23.1985 3.63747 17.8631C2.99115 17.3439 3.61976 17.8631 3 17.3618Z" stroke="currentColor" stroke-width="1.6"/>
</svg>
