<svg width="243" height="82" viewBox="0 0 243 82" fill="none" xmlns="http://www.w3.org/2000/svg">
<path d="M12.7008 22.283L13.3633 21.5488C14.8665 20.0325 14.9563 19.9418 15.9976 19.0686C16.5837 18.6088 17.3721 18.0043 17.9775 17.5697C21.9762 14.8119 27.5481 12.8497 33.0397 12.5634C33.8632 12.5206 34.656 12.5169 35.4145 12.5494L35.6261 12.5596C37.592 12.7131 37.7098 12.7222 38.9036 12.9192C41.0117 13.3397 41.1374 13.3642 42.3908 13.7376C40.1711 13.068 37.4672 12.7661 34.4012 12.9258C25.8143 13.3736 17.06 17.3015 12.7008 22.283Z" fill="currentColor"/>
<path d="M6.45828 34.3995L6.90848 32.7415C7.20452 31.8843 7.59902 30.7398 7.93984 29.8995L8.08998 29.552C11.4627 21.9008 24.1178 15.2062 36.4824 14.562C42.3062 14.2586 47.0331 15.351 50.0804 17.389L51.5471 18.4462C52.312 19.0813 53.3244 19.9383 54.0509 20.617C50.953 17.6205 45.1905 15.9204 37.7896 16.3062C24.3386 17.0072 10.5695 24.3339 7.03523 32.6704C6.78618 33.2585 6.59461 33.8348 6.45828 34.3995Z" fill="currentColor"/>
<path d="M6.32239 46.9821C6.14129 45.944 5.91007 44.5565 5.79335 43.5093L5.70001 42.0286C5.65011 40.6471 5.93569 39.1713 6.59037 37.627C10.3928 28.6574 25.2071 20.7747 39.6794 20.0202C49.1693 19.5259 56.1557 22.2195 58.7686 26.6613C60.1161 29.2016 60.2257 29.4092 60.9017 31.2093C58.9413 25.8814 51.4007 22.5271 40.7914 23.0798C26.0335 23.8487 10.9266 31.8874 7.04903 41.0343C6.14486 43.1667 5.93123 45.1713 6.32239 46.9821Z" fill="currentColor"/>
<path d="M11.6512 58.4354C10.0108 56.1408 9.87694 55.9532 8.98235 54.2952C7.76231 52.0093 7.66318 49.2879 8.92399 46.3147C12.7514 37.2861 27.6635 29.3509 42.2311 28.5921C54.0783 27.9747 62.0492 32.2928 62.5542 38.7833C62.5847 39.5634 62.6437 40.6028 62.6386 41.3829C62.6007 42.0939 62.5747 43.0435 62.5067 43.7523C63.2115 36.6713 55.2393 31.7836 42.9241 32.4251C28.8741 33.1571 14.4916 40.8102 10.8003 49.518C9.35146 52.9353 9.76467 56.0078 11.6512 58.4354Z" fill="currentColor"/>
<path d="M21.7483 66.6135L21.465 66.4743C19.3492 65.328 18.9683 65.1215 17.2061 63.8653C13.9995 61.4988 12.8619 58.0119 14.5631 53.999C17.9018 46.1234 30.9088 39.2021 43.6158 38.5401C56.1606 37.8865 63.7223 43.5768 60.7006 51.2998L60.3816 52.0859C59.2536 54.5006 59.1856 54.6452 58.2964 56.0924C58.6501 55.5304 58.9508 54.9606 59.1952 54.3848C62.2207 47.2474 55.3379 41.9476 43.8209 42.5477C32.3048 43.148 20.5158 49.4206 17.4899 56.5585C15.6544 60.8893 17.4665 64.5436 21.7483 66.6135Z" fill="currentColor"/>
<path d="M36.3118 69.3202C43.8519 68.9273 51.5696 64.8203 53.551 60.1473C55.5324 55.4741 51.0258 52.0049 43.4859 52.3978C35.9458 52.7907 28.2277 56.8977 26.2465 61.5707C24.2655 66.2437 28.7719 69.7134 36.3118 69.3202C36.0928 69.3775 35.8723 69.4118 35.6509 69.4234C33.7975 69.4739 33.7249 69.4762 32.6953 69.4256C32.2017 69.3864 31.5423 69.3458 31.0503 69.2933C24.2245 68.553 20.545 64.7475 22.61 59.8767C25.0412 54.1422 34.5117 49.1025 43.7641 48.6203C53.0164 48.1382 58.5461 52.3962 56.1149 58.1305C55.3453 59.9455 53.87 61.6912 51.9204 63.2447C51.3105 63.7059 50.4885 64.31 49.859 64.7432C48.3458 65.6928 48.3458 65.6928 47.527 66.1299C46.0421 66.8788 46.0421 66.8788 45.2733 67.2054C43.8245 67.7852 43.8245 67.7852 43.0366 68.0463C42.2966 68.2726 40.9195 68.6929 40.7478 68.6929C39.19 69.028 39.129 69.0409 38.322 69.1585C36.6395 69.3663 36.5737 69.3748 35.6506 69.4234C35.8723 69.4118 36.0926 69.3775 36.3118 69.3202Z" fill="currentColor"/>
<path d="M39.5426 66.5658C42.0482 66.4353 44.6139 65.0704 45.2722 63.5171C45.9304 61.9638 44.4328 60.8111 41.9268 60.9416C39.4208 61.0724 36.8553 62.4372 36.1971 63.9905C35.5388 65.5433 37.0364 66.6966 39.5426 66.5658C39.1481 67.1761 38.7392 67.6865 38.319 68.0999C33.7298 68.3394 30.987 66.2276 32.1928 63.3833C33.3988 60.5389 38.0963 58.0391 42.6855 57.7998C47.2748 57.5611 50.0178 59.6726 48.8118 62.517C47.6062 65.3613 42.9083 67.8609 38.319 68.0999C38.7392 67.6865 39.1484 67.1761 39.5426 66.5658Z" fill="currentColor"/>
<path d="M75.7361 5.69446H74.0278V76.3056H75.7361V5.69446Z" fill="currentColor"/>
<path d="M99.3506 32.8316V23.3472H102.448V46.2757H99.3506V35.5779H87.3754V46.2757H84.2778V23.3472H87.3754V32.8316H99.3506ZM109.442 34.6518H106.855C106.983 30.6601 109.633 29.0953 113.753 29.0953C115.094 29.0953 119.948 29.4785 119.948 33.7577V43.3698C119.948 44.0723 120.299 44.3597 120.874 44.3597C121.129 44.3597 121.481 44.2958 121.8 44.232V46.2757C121.321 46.4035 120.906 46.5951 120.267 46.5951C117.776 46.5951 117.393 45.3177 117.297 44.0404C116.212 45.2219 114.519 46.7547 111.262 46.7547C108.196 46.7547 106.025 44.8068 106.025 41.9327C106.025 40.5276 106.44 37.2704 111.102 36.6956L115.733 36.1208C116.403 36.0569 117.202 35.8014 117.202 34.1409C117.202 32.3845 115.924 31.4265 113.274 31.4265C110.08 31.4265 109.633 33.3745 109.442 34.6518ZM117.138 40.4957V37.7494C116.691 38.1007 115.988 38.3561 112.507 38.8032C111.134 38.9948 108.931 39.41 108.931 41.5176C108.931 43.3378 109.857 44.4236 111.964 44.4236C114.583 44.4236 117.138 42.7311 117.138 40.4957ZM132.402 37.6855L138.278 46.2757H134.701L130.55 39.9848L126.526 46.2757H122.982L128.857 37.6855L123.269 29.5743H126.878L130.742 35.4502L134.606 29.5743H138.054L132.402 37.6855ZM153.638 27.2751L148.337 46.2757H145.08L139.108 23.3472H142.461L146.74 41.9966H146.804L151.946 23.3472H155.331L160.472 41.9966H160.536L164.815 23.3472H168.232L162.196 46.2757H158.939L153.702 27.2751H153.638ZM173.309 34.6518H170.723C170.85 30.6601 173.501 29.0953 177.62 29.0953C178.962 29.0953 183.816 29.4785 183.816 33.7577V43.3698C183.816 44.0723 184.167 44.3597 184.742 44.3597C184.997 44.3597 185.348 44.2958 185.668 44.232V46.2757C185.189 46.4035 184.774 46.5951 184.135 46.5951C181.644 46.5951 181.261 45.3177 181.165 44.0404C180.079 45.2219 178.387 46.7547 175.13 46.7547C172.064 46.7547 169.892 44.8068 169.892 41.9327C169.892 40.5276 170.308 37.2704 174.97 36.6956L179.6 36.1208C180.271 36.0569 181.069 35.8014 181.069 34.1409C181.069 32.3845 179.792 31.4265 177.141 31.4265C173.948 31.4265 173.501 33.3745 173.309 34.6518ZM181.005 40.4957V37.7494C180.558 38.1007 179.856 38.3561 176.375 38.8032C175.002 38.9948 172.798 39.41 172.798 41.5176C172.798 43.3378 173.725 44.4236 175.832 44.4236C178.451 44.4236 181.005 42.7311 181.005 40.4957ZM191.448 23.3472V46.2757H188.638V23.3472H191.448ZM198.537 23.3472V46.2757H195.727V23.3472H198.537ZM214.121 41.0386H216.931C216.835 41.8369 216.069 44.2 213.961 45.6051C213.195 46.1161 212.109 46.7547 209.427 46.7547C204.732 46.7547 201.954 43.2101 201.954 38.3881C201.954 33.2148 204.445 29.0953 209.969 29.0953C214.791 29.0953 217.155 32.9274 217.155 38.8351H204.956C204.956 42.3159 206.584 44.3278 209.81 44.3278C212.46 44.3278 214.025 42.284 214.121 41.0386ZM204.956 36.5998H214.249C214.089 34.0131 213.003 31.6181 209.586 31.6181C207 31.6181 204.956 34.0131 204.956 36.5998ZM226.639 31.9055H223.956V42.763C223.956 44.0723 225.074 44.0723 225.649 44.0723H226.639V46.2757C225.617 46.3715 224.819 46.4993 224.531 46.4993C221.753 46.4993 221.146 44.9345 221.146 42.9227V31.9055H218.879V29.5743H221.146V24.912H223.956V29.5743H226.639V31.9055Z" fill="currentColor"/>
<path d="M84.2778 58.4982V52.5464H86.69C88.2401 52.5464 89.1934 53.7235 89.1934 55.4394C89.1934 56.774 88.6131 58.4982 86.6568 58.4982H84.2778ZM85.0819 53.2344V57.8101H86.6403C87.6847 57.8101 88.3644 56.9895 88.3644 55.4891C88.3644 53.9888 87.6764 53.2344 86.5822 53.2344H85.0819ZM96.0785 57.7853V58.4982H91.6852V52.5464H96.0205V53.2593H92.4892V55.083H95.7469V55.7958H92.4892V57.7853H96.0785ZM99.3992 55.7958V58.4982H98.5952V52.5464H102.715V53.2593H99.3992V55.083H102.317V55.7958H99.3992ZM105.886 52.5464V58.4982H105.082V52.5464H105.886ZM117.286 54.3369H116.507C116.283 53.2925 115.413 53.1018 114.841 53.1018C113.763 53.1018 112.893 53.8976 112.893 55.4643C112.893 56.8652 113.39 57.9428 114.865 57.9428C115.388 57.9428 116.291 57.6941 116.565 56.3098H117.344C117.012 58.5562 115.189 58.6557 114.741 58.6557C113.39 58.6557 112.064 57.777 112.064 55.4891C112.064 53.6572 113.108 52.3889 114.841 52.3889C116.374 52.3889 117.17 53.3422 117.286 54.3369ZM120.598 55.945V58.4982H119.794V52.5464H122.546C123.525 52.5464 124.503 52.8863 124.503 54.1463C124.503 55.0249 124.055 55.3482 123.674 55.572C124.014 55.7129 124.353 55.8621 124.387 56.6911L124.436 57.7687C124.445 58.1003 124.486 58.2246 124.735 58.3655V58.4982H123.748C123.632 58.1334 123.607 57.2299 123.607 57.0061C123.607 56.517 123.508 55.945 122.546 55.945H120.598ZM120.598 53.2344V55.257H122.463C123.052 55.257 123.674 55.1078 123.674 54.2291C123.674 53.309 123.002 53.2344 122.604 53.2344H120.598ZM129.597 56.1025V58.4982H128.793V56.1025L126.547 52.5464H127.483L129.191 55.4062L130.899 52.5464H131.844L129.597 56.1025ZM134.858 53.2344V55.2985H136.458C137.179 55.2985 137.668 55.0332 137.668 54.2291C137.668 53.4748 137.154 53.2344 136.491 53.2344H134.858ZM134.858 55.9865V58.4982H134.054V52.5464H136.731C137.834 52.5464 138.497 53.2593 138.497 54.2209C138.497 55.0498 138.024 55.9865 136.731 55.9865H134.858ZM140.367 53.2593V52.5464H145.199V53.2593H143.185V58.4982H142.381V53.2593H140.367ZM151.993 55.5223C151.993 54.1214 151.214 53.1018 149.921 53.1018C148.628 53.1018 147.849 54.1214 147.849 55.5223C147.849 56.9232 148.628 57.9428 149.921 57.9428C151.214 57.9428 151.993 56.9232 151.993 55.5223ZM152.822 55.5223C152.822 56.8071 152.143 58.6557 149.921 58.6557C147.7 58.6557 147.02 56.8071 147.02 55.5223C147.02 54.2374 147.7 52.3889 149.921 52.3889C152.143 52.3889 152.822 54.2374 152.822 55.5223ZM162.116 53.566L160.74 58.4982H159.895L158.345 52.5464H159.215L160.326 57.3874H160.342L161.677 52.5464H162.556L163.89 57.3874H163.907L165.018 52.5464H165.905L164.338 58.4982H163.492L162.133 53.566H162.116ZM171.372 56.7657H168.985L168.363 58.4982H167.534L169.772 52.5464H170.684L172.839 58.4982H171.961L171.372 56.7657ZM169.234 56.0528H171.082L170.203 53.4334H170.187L169.234 56.0528ZM175.762 52.5464V57.7853H178.78V58.4982H174.958V52.5464H175.762ZM181.752 52.5464V57.7853H184.769V58.4982H180.948V52.5464H181.752ZM191.414 57.7853V58.4982H187.021V52.5464H191.356V53.2593H187.825V55.083H191.083V55.7958H187.825V57.7853H191.414ZM193.334 53.2593V52.5464H198.167V53.2593H196.152V58.4982H195.348V53.2593H193.334Z" fill="currentColor"/>
</svg>
