<svg width="24" height="24" viewBox="0 0 24 24" fill="none" xmlns="http://www.w3.org/2000/svg">
<path d="M2.95288 4.11218L3.23209 3.80268C3.86562 3.1635 3.90346 3.12529 4.34237 2.7572C4.58937 2.56339 4.92163 2.30854 5.17681 2.12534C6.86212 0.962856 9.21044 0.135688 11.525 0.0150264C11.8721 -0.00300244 12.2062 -0.00459836 12.5259 0.00911108L12.6151 0.0134303C13.4436 0.0781276 13.4932 0.0819773 13.9964 0.164985C14.8849 0.342269 14.9378 0.352598 15.4661 0.509975C14.5306 0.227711 13.391 0.100476 12.0988 0.167802C8.47974 0.356542 4.7901 2.01229 2.95288 4.11218Z" fill="currentColor"/>
<path d="M0.322021 9.21923L0.511762 8.52033C0.636534 8.159 0.802802 7.67654 0.946445 7.32235L1.00972 7.17587C2.43122 3.95058 7.76487 1.1286 12.9761 0.857037C15.4306 0.729145 17.4228 1.18963 18.7072 2.04873L19.3253 2.49438C19.6477 2.76209 20.0744 3.12332 20.3805 3.40943C19.0749 2.14629 16.6462 1.42964 13.527 1.59228C7.85791 1.88778 2.05475 4.97625 0.565182 8.49038C0.460219 8.73827 0.379479 8.98119 0.322021 9.21923Z" fill="currentColor"/>
<path d="M0.264652 14.5247C0.188324 14.0871 0.0908728 13.5022 0.0416775 13.0608L0.00234018 12.4366C-0.0186899 11.8543 0.10167 11.2322 0.377595 10.5812C1.9802 6.80018 8.22386 3.47733 14.3234 3.15929C18.3231 2.95092 21.2676 4.08636 22.3688 5.95873C22.9367 7.02957 22.9829 7.11709 23.2679 7.8759C22.4416 5.62999 19.2635 4.21604 14.7921 4.44901C8.57218 4.77315 2.20514 8.16173 0.570902 12.0175C0.189827 12.9164 0.0997917 13.7614 0.264652 14.5247Z" fill="currentColor"/>
<path d="M2.51051 19.3528C1.81915 18.3855 1.76272 18.3064 1.38568 17.6075C0.871481 16.6439 0.829703 15.4968 1.36109 14.2435C2.9742 10.4376 9.25909 7.09259 15.3988 6.77276C20.392 6.51247 23.7514 8.33273 23.9642 11.0687C23.9771 11.3975 24.002 11.8357 23.9998 12.1645C23.9839 12.4642 23.9729 12.8645 23.9443 13.1633C24.2413 10.1784 20.8813 8.11807 15.6909 8.3885C9.76935 8.69706 3.70763 11.9231 2.15187 15.5938C1.54125 17.0343 1.71541 18.3294 2.51051 19.3528Z" fill="currentColor"/>
<path d="M6.76613 22.7989L6.64671 22.7402C5.755 22.257 5.59446 22.1699 4.85174 21.6404C3.50028 20.6428 3.02082 19.173 3.73781 17.4814C5.14494 14.1615 10.6269 11.244 15.9825 10.9649C21.2696 10.6894 24.4566 13.0881 23.1831 16.3436L23.0486 16.675C22.5732 17.6929 22.5446 17.7538 22.1698 18.3639C22.3189 18.127 22.4456 17.8868 22.5486 17.644C23.8237 14.6354 20.9229 12.4013 16.0689 12.6543C11.2153 12.9073 6.24667 15.5515 4.97135 18.5603C4.19775 20.3859 4.96149 21.9263 6.76613 22.7989Z" fill="currentColor"/>
<path d="M12.904 23.9407C16.0819 23.775 19.3346 22.0438 20.1697 20.074C21.0048 18.104 19.1055 16.6416 15.9277 16.8073C12.7498 16.9729 9.4969 18.7041 8.66189 20.674C7.82698 22.6438 9.72626 24.1064 12.904 23.9407C12.8118 23.9648 12.7188 23.9793 12.6255 23.9842C11.8444 24.0055 11.8138 24.0064 11.3798 23.9851C11.1718 23.9686 10.8939 23.9515 10.6865 23.9293C7.80971 23.6173 6.25893 22.0131 7.12923 19.9599C8.15389 17.5426 12.1454 15.4182 16.0449 15.2149C19.9444 15.0117 22.275 16.8066 21.2503 19.2238C20.926 19.9889 20.3042 20.7248 19.4825 21.3796C19.2254 21.574 18.879 21.8287 18.6137 22.0113C17.9759 22.4116 17.9759 22.4116 17.6308 22.5958C17.005 22.9115 17.005 22.9115 16.681 23.0492C16.0704 23.2936 16.0704 23.2936 15.7383 23.4037C15.4264 23.4991 14.846 23.6763 14.7737 23.6763C14.1171 23.8175 14.0914 23.8229 13.7513 23.8725C13.0421 23.9601 13.0145 23.9637 12.6254 23.9842C12.7188 23.9793 12.8117 23.9648 12.904 23.9407Z" fill="currentColor"/>
<path d="M14.2657 22.7791C15.3217 22.7241 16.4031 22.1487 16.6805 21.494C16.958 20.8392 16.3268 20.3533 15.2706 20.4083C14.2144 20.4634 13.1331 21.0387 12.8557 21.6935C12.5783 22.3481 13.2094 22.8342 14.2657 22.7791C14.0995 23.0364 13.9271 23.2515 13.75 23.4258C11.8158 23.5267 10.6598 22.6366 11.168 21.4375C11.6763 20.2385 13.6561 19.1848 15.5903 19.0839C17.5245 18.9833 18.6806 19.8734 18.1723 21.0724C17.6642 22.2714 15.6842 23.325 13.75 23.4258C13.9271 23.2515 14.0996 23.0364 14.2657 22.7791Z" fill="currentColor"/>
</svg>
