<svg width="96" height="24" viewBox="0 0 96 24" fill="none" xmlns="http://www.w3.org/2000/svg">
<path d="M2.95288 4.11218L3.23209 3.80268C3.86562 3.1635 3.90346 3.12529 4.34237 2.7572C4.58937 2.56339 4.92163 2.30854 5.17681 2.12534C6.86212 0.962856 9.21044 0.135688 11.525 0.0150264C11.8721 -0.00300244 12.2062 -0.00459836 12.5259 0.00911108L12.6151 0.0134303C13.4436 0.0781276 13.4932 0.0819773 13.9964 0.164985C14.8849 0.342269 14.9378 0.352598 15.4661 0.509975C14.5306 0.227711 13.391 0.100476 12.0988 0.167802C8.47974 0.356542 4.7901 2.01229 2.95288 4.11218Z" fill="currentColor"/>
<path d="M0.322021 9.21923L0.511762 8.52033C0.636534 8.159 0.802802 7.67654 0.946445 7.32235L1.00972 7.17587C2.43122 3.95058 7.76487 1.1286 12.9761 0.857037C15.4306 0.729145 17.4228 1.18963 18.7072 2.04873L19.3253 2.49438C19.6477 2.76209 20.0744 3.12332 20.3805 3.40943C19.0749 2.14629 16.6462 1.42964 13.527 1.59228C7.85791 1.88778 2.05475 4.97625 0.565182 8.49038C0.460219 8.73827 0.379479 8.98119 0.322021 9.21923Z" fill="currentColor"/>
<path d="M0.264652 14.5247C0.188324 14.0871 0.0908728 13.5022 0.0416775 13.0608L0.00234018 12.4366C-0.0186899 11.8543 0.10167 11.2322 0.377595 10.5812C1.9802 6.80018 8.22386 3.47733 14.3234 3.15929C18.3231 2.95092 21.2676 4.08636 22.3688 5.95873C22.9367 7.02957 22.9829 7.11709 23.2679 7.8759C22.4416 5.62999 19.2635 4.21604 14.7921 4.44901C8.57218 4.77315 2.20514 8.16173 0.570902 12.0175C0.189827 12.9164 0.0997917 13.7614 0.264652 14.5247Z" fill="currentColor"/>
<path d="M2.51051 19.3528C1.81915 18.3855 1.76272 18.3064 1.38568 17.6075C0.871481 16.6439 0.829703 15.4968 1.36109 14.2435C2.9742 10.4376 9.25909 7.09259 15.3988 6.77276C20.392 6.51247 23.7514 8.33273 23.9642 11.0687C23.9771 11.3975 24.002 11.8357 23.9998 12.1645C23.9839 12.4642 23.9729 12.8645 23.9443 13.1633C24.2413 10.1784 20.8813 8.11807 15.6909 8.3885C9.76935 8.69706 3.70763 11.9231 2.15187 15.5938C1.54125 17.0343 1.71541 18.3294 2.51051 19.3528Z" fill="currentColor"/>
<path d="M6.76613 22.7989L6.64671 22.7402C5.755 22.257 5.59446 22.1699 4.85174 21.6404C3.50028 20.6428 3.02082 19.173 3.73781 17.4814C5.14494 14.1615 10.6269 11.244 15.9825 10.9649C21.2696 10.6894 24.4566 13.0881 23.1831 16.3436L23.0486 16.675C22.5732 17.6929 22.5446 17.7538 22.1698 18.3639C22.3189 18.127 22.4456 17.8868 22.5486 17.644C23.8237 14.6354 20.9229 12.4013 16.0689 12.6543C11.2153 12.9073 6.24667 15.5515 4.97135 18.5603C4.19775 20.3859 4.96149 21.9263 6.76613 22.7989Z" fill="currentColor"/>
<path d="M12.904 23.9407C16.0819 23.775 19.3346 22.0438 20.1697 20.074C21.0048 18.104 19.1055 16.6416 15.9277 16.8073C12.7498 16.9729 9.4969 18.7041 8.66189 20.674C7.82698 22.6438 9.72626 24.1064 12.904 23.9407C12.8118 23.9648 12.7188 23.9793 12.6255 23.9842C11.8444 24.0055 11.8138 24.0064 11.3798 23.9851C11.1718 23.9686 10.8939 23.9515 10.6865 23.9293C7.80971 23.6173 6.25893 22.0131 7.12923 19.9599C8.15389 17.5426 12.1454 15.4182 16.0449 15.2149C19.9444 15.0117 22.275 16.8066 21.2503 19.2238C20.926 19.9889 20.3042 20.7248 19.4825 21.3796C19.2254 21.574 18.879 21.8287 18.6137 22.0113C17.9759 22.4116 17.9759 22.4116 17.6308 22.5958C17.005 22.9115 17.005 22.9115 16.681 23.0492C16.0704 23.2936 16.0704 23.2936 15.7383 23.4037C15.4264 23.4991 14.846 23.6763 14.7737 23.6763C14.1171 23.8175 14.0914 23.8229 13.7513 23.8725C13.0421 23.9601 13.0145 23.9637 12.6254 23.9842C12.7188 23.9793 12.8117 23.9648 12.904 23.9407Z" fill="currentColor"/>
<path d="M14.2657 22.7791C15.3217 22.7241 16.4031 22.1487 16.6805 21.494C16.958 20.8392 16.3268 20.3533 15.2706 20.4083C14.2144 20.4634 13.1331 21.0387 12.8557 21.6935C12.5783 22.3481 13.2094 22.8342 14.2657 22.7791C14.0995 23.0364 13.9271 23.2515 13.75 23.4258C11.8158 23.5267 10.6598 22.6366 11.168 21.4375C11.6763 20.2385 13.6561 19.1848 15.5903 19.0839C17.5245 18.9833 18.6806 19.8734 18.1723 21.0724C17.6642 22.2714 15.6842 23.325 13.75 23.4258C13.9271 23.2515 14.0996 23.0364 14.2657 22.7791Z" fill="currentColor"/>
<path d="M39.6562 11.3262V12.3994H34.2695V11.3262H39.6562ZM34.4746 7.04688V17H33.1553V7.04688H34.4746ZM40.8047 7.04688V17H39.4922V7.04688H40.8047ZM47.3193 15.7354V11.9277C47.3193 11.6361 47.2601 11.3831 47.1416 11.1689C47.0277 10.9502 46.8545 10.7816 46.6221 10.6631C46.3896 10.5446 46.1025 10.4854 45.7607 10.4854C45.4417 10.4854 45.1615 10.54 44.9199 10.6494C44.6829 10.7588 44.4961 10.9023 44.3594 11.0801C44.2272 11.2578 44.1611 11.4492 44.1611 11.6543H42.8965C42.8965 11.39 42.9648 11.1279 43.1016 10.8682C43.2383 10.6084 43.4342 10.3737 43.6895 10.1641C43.9492 9.94987 44.2591 9.78125 44.6191 9.6582C44.9837 9.5306 45.3893 9.4668 45.8359 9.4668C46.3737 9.4668 46.8477 9.55794 47.2578 9.74023C47.6725 9.92253 47.9961 10.1982 48.2285 10.5674C48.4655 10.932 48.584 11.39 48.584 11.9414V15.3867C48.584 15.6328 48.6045 15.8949 48.6455 16.1729C48.6911 16.4508 48.7572 16.6901 48.8438 16.8906V17H47.5244C47.4606 16.8542 47.4105 16.6605 47.374 16.4189C47.3376 16.1729 47.3193 15.945 47.3193 15.7354ZM47.5381 12.5156L47.5518 13.4043H46.2734C45.9134 13.4043 45.5921 13.4339 45.3096 13.4932C45.027 13.5479 44.79 13.6322 44.5986 13.7461C44.4072 13.86 44.2614 14.0036 44.1611 14.1768C44.0609 14.3454 44.0107 14.5436 44.0107 14.7715C44.0107 15.0039 44.0632 15.2158 44.168 15.4072C44.2728 15.5986 44.43 15.7513 44.6396 15.8652C44.8538 15.9746 45.1159 16.0293 45.4258 16.0293C45.8132 16.0293 46.1549 15.9473 46.4512 15.7832C46.7474 15.6191 46.9821 15.4186 47.1553 15.1816C47.333 14.9447 47.4287 14.7145 47.4424 14.4912L47.9824 15.0996C47.9505 15.291 47.8639 15.5029 47.7227 15.7354C47.5814 15.9678 47.3923 16.1911 47.1553 16.4053C46.9229 16.6149 46.6449 16.7904 46.3213 16.9316C46.0023 17.0684 45.6423 17.1367 45.2412 17.1367C44.7399 17.1367 44.3001 17.0387 43.9219 16.8428C43.5482 16.6468 43.2565 16.3848 43.0469 16.0566C42.8418 15.724 42.7393 15.3525 42.7393 14.9424C42.7393 14.5459 42.8167 14.1973 42.9717 13.8965C43.1266 13.5911 43.3499 13.3382 43.6416 13.1377C43.9333 12.9326 44.2842 12.7777 44.6943 12.6729C45.1045 12.568 45.5625 12.5156 46.0684 12.5156H47.5381ZM51.4277 9.60352L53.0479 12.2969L54.6885 9.60352H56.1719L53.752 13.2539L56.2471 17H54.7842L53.0752 14.2246L51.3662 17H49.8965L52.3848 13.2539L49.9717 9.60352H51.4277ZM60.3281 13.9922L62.3037 7.04688H63.2607L62.707 9.74707L60.5811 17H59.6309L60.3281 13.9922ZM58.2842 7.04688L59.8564 13.8555L60.3281 17H59.3848L56.9717 7.04688H58.2842ZM65.8174 13.8486L67.3555 7.04688H68.6748L66.2686 17H65.3252L65.8174 13.8486ZM63.4043 7.04688L65.3252 13.9922L66.0225 17H65.0723L63.0215 9.74707L62.4609 7.04688H63.4043ZM74.0752 15.7354V11.9277C74.0752 11.6361 74.016 11.3831 73.8975 11.1689C73.7835 10.9502 73.6104 10.7816 73.3779 10.6631C73.1455 10.5446 72.8584 10.4854 72.5166 10.4854C72.1976 10.4854 71.9173 10.54 71.6758 10.6494C71.4388 10.7588 71.252 10.9023 71.1152 11.0801C70.9831 11.2578 70.917 11.4492 70.917 11.6543H69.6523C69.6523 11.39 69.7207 11.1279 69.8574 10.8682C69.9941 10.6084 70.1901 10.3737 70.4453 10.1641C70.7051 9.94987 71.015 9.78125 71.375 9.6582C71.7396 9.5306 72.1452 9.4668 72.5918 9.4668C73.1296 9.4668 73.6035 9.55794 74.0137 9.74023C74.4284 9.92253 74.752 10.1982 74.9844 10.5674C75.2214 10.932 75.3398 11.39 75.3398 11.9414V15.3867C75.3398 15.6328 75.3604 15.8949 75.4014 16.1729C75.4469 16.4508 75.513 16.6901 75.5996 16.8906V17H74.2803C74.2165 16.8542 74.1663 16.6605 74.1299 16.4189C74.0934 16.1729 74.0752 15.945 74.0752 15.7354ZM74.2939 12.5156L74.3076 13.4043H73.0293C72.6693 13.4043 72.348 13.4339 72.0654 13.4932C71.7829 13.5479 71.5459 13.6322 71.3545 13.7461C71.1631 13.86 71.0173 14.0036 70.917 14.1768C70.8167 14.3454 70.7666 14.5436 70.7666 14.7715C70.7666 15.0039 70.819 15.2158 70.9238 15.4072C71.0286 15.5986 71.1859 15.7513 71.3955 15.8652C71.6097 15.9746 71.8717 16.0293 72.1816 16.0293C72.569 16.0293 72.9108 15.9473 73.207 15.7832C73.5033 15.6191 73.738 15.4186 73.9111 15.1816C74.0889 14.9447 74.1846 14.7145 74.1982 14.4912L74.7383 15.0996C74.7064 15.291 74.6198 15.5029 74.4785 15.7354C74.3372 15.9678 74.1481 16.1911 73.9111 16.4053C73.6787 16.6149 73.4007 16.7904 73.0771 16.9316C72.7581 17.0684 72.3981 17.1367 71.9971 17.1367C71.4958 17.1367 71.056 17.0387 70.6777 16.8428C70.304 16.6468 70.0124 16.3848 69.8027 16.0566C69.5977 15.724 69.4951 15.3525 69.4951 14.9424C69.4951 14.5459 69.5726 14.1973 69.7275 13.8965C69.8825 13.5911 70.1058 13.3382 70.3975 13.1377C70.6891 12.9326 71.04 12.7777 71.4502 12.6729C71.8604 12.568 72.3184 12.5156 72.8242 12.5156H74.2939ZM78.7031 6.5V17H77.4316V6.5H78.7031ZM82.1074 6.5V17H80.8359V6.5H82.1074ZM87.207 17.1367C86.6921 17.1367 86.2249 17.0501 85.8057 16.877C85.391 16.6992 85.0332 16.4508 84.7324 16.1318C84.4362 15.8128 84.2083 15.4346 84.0488 14.9971C83.8893 14.5596 83.8096 14.0811 83.8096 13.5615V13.2744C83.8096 12.6729 83.8984 12.1374 84.0762 11.668C84.2539 11.194 84.4954 10.793 84.8008 10.4648C85.1061 10.1367 85.4525 9.88835 85.8398 9.71973C86.2272 9.55111 86.6283 9.4668 87.043 9.4668C87.5716 9.4668 88.0273 9.55794 88.4102 9.74023C88.7975 9.92253 89.1143 10.1777 89.3604 10.5059C89.6064 10.8294 89.7887 11.2122 89.9072 11.6543C90.0257 12.0918 90.085 12.5703 90.085 13.0898V13.6572H84.5615V12.625H88.8203V12.5293C88.8021 12.2012 88.7337 11.8822 88.6152 11.5723C88.5013 11.2624 88.319 11.0072 88.0684 10.8066C87.8177 10.6061 87.4759 10.5059 87.043 10.5059C86.7559 10.5059 86.4915 10.5674 86.25 10.6904C86.0085 10.8089 85.8011 10.9867 85.6279 11.2236C85.4548 11.4606 85.3203 11.75 85.2246 12.0918C85.1289 12.4336 85.0811 12.8278 85.0811 13.2744V13.5615C85.0811 13.9124 85.1289 14.2428 85.2246 14.5527C85.3249 14.8581 85.4684 15.127 85.6553 15.3594C85.8467 15.5918 86.0768 15.7741 86.3457 15.9062C86.6191 16.0384 86.929 16.1045 87.2754 16.1045C87.722 16.1045 88.1003 16.0133 88.4102 15.8311C88.7201 15.6488 88.9912 15.4049 89.2236 15.0996L89.9893 15.708C89.8298 15.9495 89.627 16.1797 89.3809 16.3984C89.1348 16.6172 88.8317 16.7949 88.4717 16.9316C88.1162 17.0684 87.6947 17.1367 87.207 17.1367ZM94.6582 9.60352V10.5742H90.6592V9.60352H94.6582ZM92.0127 7.80566H93.2773V15.168C93.2773 15.4186 93.3161 15.6077 93.3936 15.7354C93.471 15.863 93.5713 15.9473 93.6943 15.9883C93.8174 16.0293 93.9495 16.0498 94.0908 16.0498C94.1956 16.0498 94.305 16.0407 94.4189 16.0225C94.5374 15.9997 94.6263 15.9814 94.6855 15.9678L94.6924 17C94.5921 17.0319 94.46 17.0615 94.2959 17.0889C94.1364 17.1208 93.9427 17.1367 93.7148 17.1367C93.4049 17.1367 93.1201 17.0752 92.8604 16.9521C92.6006 16.8291 92.3932 16.624 92.2383 16.3369C92.0879 16.0452 92.0127 15.6533 92.0127 15.1611V7.80566Z" fill="currentColor"/>
</svg>
