<svg width="18" height="18" viewBox="0 0 18 18" fill="none" xmlns="http://www.w3.org/2000/svg">
<g clip-path="url(#clip0_256_36540)">
<path d="M15.75 13.5V14.25C15.75 15.075 15.075 15.75 14.25 15.75H3.75C2.9175 15.75 2.25 15.075 2.25 14.25V3.75C2.25 2.925 2.9175 2.25 3.75 2.25H14.25C15.075 2.25 15.75 2.925 15.75 3.75V4.5H9C8.1675 4.5 7.5 5.175 7.5 6V12C7.5 12.825 8.1675 13.5 9 13.5H15.75ZM9 12H16.5V6H9V12ZM12 10.125C11.3775 10.125 10.875 9.6225 10.875 9C10.875 8.3775 11.3775 7.875 12 7.875C12.6225 7.875 13.125 8.3775 13.125 9C13.125 9.6225 12.6225 10.125 12 10.125Z" fill="currentColor"/>
</g>
<defs>
<clipPath id="clip0_256_36540">
<rect width="18" height="18" fill="white"/>
</clipPath>
</defs>
</svg>
