<svg width="16" height="16" viewBox="0 0 16 16" fill="none" xmlns="http://www.w3.org/2000/svg">
<g clip-path="url(#clip0_147_11083)">
<path d="M11.1133 8.75293C12.0267 9.37293 12.6667 10.2129 12.6667 11.3329V13.3329H15.3333V11.3329C15.3333 9.8796 12.9533 9.0196 11.1133 8.75293Z" fill="currentColor"/>
<path d="M9.99999 7.99984C11.4733 7.99984 12.6667 6.8065 12.6667 5.33317C12.6667 3.85984 11.4733 2.6665 9.99999 2.6665C9.68666 2.6665 9.39333 2.73317 9.11333 2.8265C9.66666 3.51317 9.99999 4.3865 9.99999 5.33317C9.99999 6.27984 9.66666 7.15317 9.11333 7.83984C9.39333 7.93317 9.68666 7.99984 9.99999 7.99984Z" fill="currentColor"/>
<path d="M6 7.99984C7.47333 7.99984 8.66666 6.8065 8.66666 5.33317C8.66666 3.85984 7.47333 2.6665 6 2.6665C4.52666 2.6665 3.33333 3.85984 3.33333 5.33317C3.33333 6.8065 4.52666 7.99984 6 7.99984ZM6 3.99984C6.73333 3.99984 7.33333 4.59984 7.33333 5.33317C7.33333 6.0665 6.73333 6.6665 6 6.6665C5.26666 6.6665 4.66666 6.0665 4.66666 5.33317C4.66666 4.59984 5.26666 3.99984 6 3.99984Z" fill="currentColor"/>
<path d="M6 8.6665C4.22 8.6665 0.666664 9.55984 0.666664 11.3332V13.3332H11.3333V11.3332C11.3333 9.55984 7.78 8.6665 6 8.6665ZM10 11.9998H2V11.3398C2.13333 10.8598 4.2 9.99984 6 9.99984C7.8 9.99984 9.86666 10.8598 10 11.3332V11.9998Z" fill="currentColor"/>
</g>
<defs>
<clipPath id="clip0_147_11083">
<rect width="16" height="16" fill="white"/>
</clipPath>
</defs>
</svg>
