<svg width="16" height="16" viewBox="0 0 16 16" fill="none" xmlns="http://www.w3.org/2000/svg">
<g clip-path="url(#clip0_180_15389)">
<path d="M7.46 0.906992L2.79333 2.98033C2.31333 3.19366 2 3.67366 2 4.20033V7.33366C2 11.0337 4.56 14.4937 8 15.3337C11.44 14.4937 14 11.0337 14 7.33366V4.20033C14 3.67366 13.6867 3.19366 13.2067 2.98033L8.54 0.906992C8.2 0.753659 7.8 0.753659 7.46 0.906992ZM6.19333 10.8603L4.46667 9.13366C4.20667 8.87366 4.20667 8.45366 4.46667 8.19366C4.72667 7.93366 5.14667 7.93366 5.40667 8.19366L6.66667 9.44699L10.5867 5.52699C10.8467 5.26699 11.2667 5.26699 11.5267 5.52699C11.7867 5.78699 11.7867 6.20699 11.5267 6.46699L7.13333 10.8603C6.88 11.1203 6.45333 11.1203 6.19333 10.8603Z" fill="currentColor"/>
</g>
<defs>
<clipPath id="clip0_180_15389">
<rect width="16" height="16" fill="white"/>
</clipPath>
</defs>
</svg>
