<svg width="74" height="74" viewBox="0 0 74 74" fill="none" xmlns="http://www.w3.org/2000/svg">
<rect width="74" height="74" rx="24" fill="#A0C7FD"/>
<path d="M18.1519 20.567L18.7335 19.9223C20.0534 18.5906 20.1322 18.511 21.0466 17.7442C21.5612 17.3404 22.2534 16.8095 22.785 16.4278C26.2961 14.0059 31.1884 12.2827 36.0104 12.0313C36.7335 11.9937 37.4296 11.9904 38.0956 12.019L38.2814 12.028C40.0075 12.1628 40.111 12.1708 41.1591 12.3437C43.0102 12.7131 43.1205 12.7346 44.2211 13.0624C42.2721 12.4744 39.898 12.2093 37.2058 12.3496C29.6662 12.7428 21.9794 16.1923 18.1519 20.567Z" fill="#111111"/>
<path d="M12.6708 31.2077L13.0661 29.7516C13.326 28.9989 13.6724 27.9938 13.9717 27.2559L14.1035 26.9507C17.0649 20.2313 28.1767 14.3522 39.0334 13.7865C44.147 13.52 48.2974 14.4794 50.9731 16.2691L52.2609 17.1976C52.9326 17.7553 53.8215 18.5079 54.4594 19.1039C51.7393 16.4724 46.6795 14.9794 40.1812 15.3182C28.3705 15.9338 16.2806 22.3682 13.1774 29.6892C12.9587 30.2057 12.7905 30.7118 12.6708 31.2077Z" fill="#111111"/>
<path d="M12.5514 42.2578C12.3923 41.3461 12.1893 40.1276 12.0868 39.208L12.0049 37.9076C11.9611 36.6944 12.2118 35.3983 12.7867 34.0421C16.1254 26.165 29.1331 19.2424 41.8405 18.5798C50.1731 18.1457 56.3074 20.5112 58.6017 24.412C59.7848 26.6429 59.8811 26.8253 60.4747 28.4061C58.7533 23.7271 52.1323 20.7814 42.8169 21.2668C29.8587 21.9421 16.594 29.0016 13.1894 37.0344C12.3955 38.9071 12.2079 40.6675 12.5514 42.2578Z" fill="#111111"/>
<path d="M17.2303 52.3161C15.7899 50.301 15.6724 50.1363 14.8869 48.6802C13.8156 46.6727 13.7286 44.2827 14.8356 41.6717C18.1963 33.7428 31.2898 26.7741 44.0809 26.1078C54.4833 25.5655 61.4822 29.3577 61.9256 35.0576C61.9524 35.7427 62.0042 36.6555 61.9997 37.3406C61.9664 37.965 61.9436 38.799 61.8839 39.4215C62.5028 33.2029 55.5027 28.9105 44.6894 29.4739C32.3529 30.1167 19.7243 36.8376 16.4831 44.4848C15.211 47.4859 15.5738 50.1842 17.2303 52.3161Z" fill="#111111"/>
<path d="M26.0961 59.4981L25.8473 59.3758C23.9895 58.3691 23.6551 58.1878 22.1078 57.0846C19.2922 55.0063 18.2933 51.9442 19.7871 48.42C22.7186 41.5036 34.1394 35.4254 45.2967 34.844C56.3117 34.27 62.9512 39.2672 60.298 46.0496L60.018 46.7399C59.0275 48.8605 58.9678 48.9875 58.187 50.2585C58.4976 49.7649 58.7617 49.2645 58.9762 48.7588C61.6328 42.4908 55.5894 37.8364 45.4769 38.3635C35.3652 38.8907 25.0139 44.3993 22.3569 50.6677C20.7453 54.4711 22.3364 57.6803 26.0961 59.4981Z" fill="#111111"/>
<path d="M38.8834 61.8751C45.504 61.53 52.2805 57.9233 54.0203 53.8195C55.7601 49.7154 51.803 46.6688 45.1826 47.0139C38.5621 47.3589 31.7852 50.9657 30.0456 55.0695C28.3062 59.1733 32.263 62.2204 38.8834 61.8751C38.6911 61.9254 38.4975 61.9555 38.3031 61.9657C36.6758 62.0101 36.612 62.0121 35.708 61.9677C35.2746 61.9332 34.6956 61.8976 34.2635 61.8515C28.2702 61.2014 25.0394 57.8593 26.8526 53.5818C28.9873 48.5458 37.3028 44.12 45.4269 43.6964C53.5509 43.2731 58.4062 47.0125 56.2715 52.0483C55.5958 53.6422 54.3004 55.1753 52.5885 56.5396C52.053 56.9446 51.3313 57.4751 50.7785 57.8556C49.4499 58.6896 49.4499 58.6896 48.7309 59.0734C47.4271 59.7311 47.4271 59.7311 46.7521 60.0179C45.4799 60.5271 45.4799 60.5271 44.7881 60.7563C44.1384 60.9551 42.9292 61.3243 42.7784 61.3243C41.4107 61.6185 41.3571 61.6298 40.6484 61.7331C39.1711 61.9156 39.1134 61.9231 38.3029 61.9657C38.4975 61.9555 38.691 61.9254 38.8834 61.8751Z" fill="#111111"/>
<path d="M41.7204 59.4562C43.9204 59.3415 46.1732 58.143 46.7512 56.7789C47.3292 55.4148 46.0142 54.4024 43.8138 54.517C41.6134 54.6319 39.3608 55.8305 38.7828 57.1946C38.2048 58.5583 39.5198 59.571 41.7204 59.4562C41.374 59.9922 41.0149 60.4404 40.646 60.8035C36.6164 61.0138 34.2081 59.1592 35.2668 56.6613C36.3258 54.1633 40.4504 51.968 44.48 51.7579C48.5096 51.5482 50.9181 53.4026 49.8591 55.9005C48.8006 58.3984 44.6756 60.5936 40.646 60.8035C41.0149 60.4404 41.3742 59.9922 41.7204 59.4562Z" fill="#111111"/>
</svg>
